<?xml version="1.0" standalone="no"?>
<!DOCTYPE svg PUBLIC "-//W3C//DTD SVG 20010904//EN"
 "http://www.w3.org/TR/2001/REC-SVG-20010904/DTD/svg10.dtd">
<svg version="1.0" xmlns="http://www.w3.org/2000/svg"
 width="120.000000pt" height="120.000000pt" viewBox="0 0 120.000000 120.000000"
 preserveAspectRatio="xMidYMid meet">
<metadata>
Created by potrace 1.14, written by Peter Selinger 2001-2017
</metadata>
<g transform="translate(0.000000,120.000000) scale(0.100000,-0.100000)"
fill="#000000" stroke="none">
<path d="M945 1050 c-7 -33 -32 -43 -58 -22 -22 20 -35 7 -19 -19 16 -25 -3
-58 -22 -39 -5 5 -19 10 -29 10 -18 0 -18 -2 -4 -24 14 -20 14 -26 2 -36 -10
-8 -18 -8 -34 2 -26 16 -39 3 -23 -23 10 -16 11 -24 1 -35 -10 -13 -14 -12
-30 2 -26 23 -43 9 -24 -20 14 -21 14 -25 0 -36 -12 -10 -19 -10 -27 -2 -7 7
-18 12 -25 12 -19 0 -16 -27 4 -34 15 -6 15 -8 0 -24 -15 -14 -20 -15 -38 -4
-27 17 -37 7 -21 -19 19 -30 -1 -52 -33 -37 -17 8 -28 6 -49 -7 -25 -17 -27
-17 -61 14 -41 36 -48 34 -110 -27 l-40 -40 -33 30 c-43 37 -82 35 -96 -5 -9
-24 -6 -31 24 -62 l34 -35 -38 -39 c-34 -35 -38 -44 -40 -97 -2 -36 -13 -83
-30 -121 -35 -83 -34 -114 5 -152 42 -42 101 -46 172 -9 23 11 55 21 71 20 25
-1 48 17 138 106 98 96 125 132 99 132 -5 0 -17 -7 -26 -17 -16 -15 -22 -11
-98 65 l-82 82 70 70 70 70 77 -77 c43 -43 78 -81 78 -84 0 -4 -14 -22 -31
-39 -46 -45 -24 -62 25 -19 31 27 36 37 34 68 -3 52 7 65 36 46 29 -19 39 -9
20 20 -14 22 -14 24 4 34 15 8 23 7 33 -5 18 -22 34 -1 18 25 -11 16 -11 23
-1 33 10 10 17 10 33 0 27 -17 37 -7 20 19 -10 18 -10 23 5 34 15 10 20 10 32
-1 22 -22 35 -5 18 21 -14 22 -14 25 1 33 11 7 23 6 34 -1 24 -15 36 -1 20 25
-18 28 1 48 29 30 11 -6 22 -12 25 -12 11 0 4 39 -7 42 -21 7 0 38 27 38 32 0
32 18 1 30 -31 11 -44 49 -23 65 10 7 13 16 7 25 -7 12 -12 11 -29 -4 -19 -17
-20 -17 -41 4 -11 11 -18 25 -15 29 2 5 -2 11 -9 14 -10 4 -17 -3 -21 -23z
m53 -66 c15 -10 22 -25 22 -46 0 -28 -22 -54 -163 -196 -155 -156 -164 -163
-181 -147 -16 17 -13 22 58 93 42 41 76 79 76 83 0 25 -25 9 -95 -61 -65 -66
-80 -76 -91 -65 -8 7 -14 17 -14 22 0 19 327 333 346 333 11 0 30 -7 42 -16z
m-550 -307 l22 -24 -43 -46 -44 -46 -29 30 -28 29 39 40 c22 22 44 40 50 40 6
0 21 -10 33 -23z m-64 -162 c86 -85 156 -159 156 -164 0 -27 -33 -14 -76 30
-32 32 -51 46 -58 39 -7 -7 3 -24 29 -52 22 -24 44 -45 48 -49 11 -8 -2 -36
-20 -44 -11 -3 -32 10 -61 40 -51 50 -87 58 -117 25 -18 -20 -19 -20 -48 7
-63 60 -66 116 -9 176 l26 27 57 -56 c37 -37 59 -52 64 -44 4 7 -28 47 -84
104 -50 52 -91 98 -91 105 0 30 41 -2 184 -144z m-197 -234 c-18 -50 -19 -61
-8 -75 18 -21 54 -20 100 4 33 16 41 17 50 6 9 -11 2 -19 -36 -37 -61 -29
-107 -29 -139 2 -30 28 -29 54 5 133 17 39 24 46 35 37 12 -10 11 -21 -7 -70z
m200 6 l42 -44 -21 -22 -21 -23 -50 50 c-43 43 -49 53 -38 66 22 26 44 19 88
-27z m-116 -45 c-20 -16 -60 -27 -68 -18 -3 3 2 24 12 46 l18 40 27 -28 c25
-24 26 -28 11 -40z"/>
<path d="M507 585 c-38 -36 -47 -55 -24 -55 21 0 82 69 71 80 -7 7 -22 -2 -47
-25z"/>
<path d="M545 540 c-26 -27 -36 -43 -29 -50 7 -7 23 3 49 30 26 27 36 43 29
50 -7 7 -23 -3 -49 -30z"/>
<path d="M580 495 c-24 -25 -31 -38 -23 -46 7 -7 21 0 47 24 20 19 36 39 36
46 0 21 -26 11 -60 -24z"/>
</g>
</svg>
